<svg xmlns="http://www.w3.org/2000/svg" width="21" height="16.5" viewBox="0 0 21 16.5">
  <path id="icon-email" d="M1153.75,2014.75v10.5a2.253,2.253,0,0,1-2.25,2.25h-15a2.253,2.253,0,0,1-2.25-2.25v-10.5m19.5,0a2.253,2.253,0,0,0-2.25-2.25h-15a2.253,2.253,0,0,0-2.25,2.25m19.5,0v.25a2.254,2.254,0,0,1-1.07,1.91l-7.5,4.62a2.275,2.275,0,0,1-2.36,0l-7.5-4.62a2.254,2.254,0,0,1-1.07-1.91v-.25" transform="translate(-1133.5 -2011.75)" fill="none" stroke="#fff" stroke-linecap="round" stroke-linejoin="round" stroke-width="1.5"/>
<!-- Code injected by live-server -->
<script>
	// <![CDATA[  <-- For SVG support
	if ('WebSocket' in window) {
		(function () {
			function refreshCSS() {
				var sheets = [].slice.call(document.getElementsByTagName("link"));
				var head = document.getElementsByTagName("head")[0];
				for (var i = 0; i < sheets.length; ++i) {
					var elem = sheets[i];
					var parent = elem.parentElement || head;
					parent.removeChild(elem);
					var rel = elem.rel;
					if (elem.href && typeof rel != "string" || rel.length == 0 || rel.toLowerCase() == "stylesheet") {
						var url = elem.href.replace(/(&|\?)_cacheOverride=\d+/, '');
						elem.href = url + (url.indexOf('?') >= 0 ? '&' : '?') + '_cacheOverride=' + (new Date().valueOf());
					}
					parent.appendChild(elem);
				}
			}
			var protocol = window.location.protocol === 'http:' ? 'ws://' : 'wss://';
			var address = protocol + window.location.host + window.location.pathname + '/ws';
			var socket = new WebSocket(address);
			socket.onmessage = function (msg) {
				if (msg.data == 'reload') window.location.reload();
				else if (msg.data == 'refreshcss') refreshCSS();
			};
			if (sessionStorage && !sessionStorage.getItem('IsThisFirstTime_Log_From_LiveServer')) {
				console.log('Live reload enabled.');
				sessionStorage.setItem('IsThisFirstTime_Log_From_LiveServer', true);
			}
		})();
	}
	else {
		console.error('Upgrade your browser. This Browser is NOT supported WebSocket for Live-Reloading.');
	}
	// ]]>
</script>
</svg>
