<svg xmlns="http://www.w3.org/2000/svg" width="21" height="21" viewBox="0 0 21 21">
  <path id="icon-phone" d="M1658.25,2638.77a15.005,15.005,0,0,0,15,15h2.25a2.253,2.253,0,0,0,2.25-2.25v-1.38a1.132,1.132,0,0,0-.85-1.09l-4.43-1.1a1.125,1.125,0,0,0-1.17.41l-.97,1.3a1.072,1.072,0,0,1-1.21.38,12.043,12.043,0,0,1-7.14-7.15,1.062,1.062,0,0,1,.38-1.21l1.29-.97a1.124,1.124,0,0,0,.42-1.17l-1.11-4.42a1.115,1.115,0,0,0-1.09-.85h-1.37a2.247,2.247,0,0,0-2.25,2.25Z" transform="translate(-1657.5 -2633.52)" fill="none" stroke="#fff" stroke-linecap="round" stroke-linejoin="round" stroke-width="1.5"/>
</svg>
