<svg xmlns="http://www.w3.org/2000/svg" width="42" height="38.364" viewBox="0 0 42 38.364">
  <path id="Service_icons_migration" d="M104.114,196.136H127.75m-23.636,0a3.636,3.636,0,1,1-7.273,0m7.273,0a3.636,3.636,0,1,0-7.273,0m-9.091,0h9.091m7.273,29.091H127.75m-23.636,0a3.636,3.636,0,1,1-7.273,0m7.273,0a3.636,3.636,0,0,0-7.273,0m-9.091,0h9.091m21.818-14.545h9.091m-9.091,0a3.636,3.636,0,1,1-7.273,0m7.273,0a3.636,3.636,0,1,0-7.273,0m-23.636,0h23.636" transform="translate(-86.75 -191.5)" fill="none" stroke="#008cd2" stroke-linecap="round" stroke-linejoin="round" stroke-width="2"/>
</svg>
